<?xml version="1.0" encoding="UTF-8"?>
<svg id="Calque_1" xmlns="http://www.w3.org/2000/svg" version="1.1" viewBox="0 0 255.12 255.12">
  <!-- Generator: Adobe Illustrator 29.5.1, SVG Export Plug-In . SVG Version: 2.1.0 Build 141)  -->
  <defs>
    <style>
      .st0 {
        opacity: .63;
      }

      .st0, .st1 {
        fill: #092b3e;
      }

      .st2 {
        fill: #fff;
      }

      .st3 {
        fill: #be1622;
      }
    </style>
  </defs>
  <circle class="st3" cx="112.98" cy="121.2" r="60.09"/>
  <ellipse class="st0" cx="89.23" cy="191.73" rx="20.31" ry="5.27"/>
  <g>
    <path class="st1" d="M202.94,117.83v7.22c-.67,4.25-1.1,9.31-2.71,13.4-1.92,4.86-8.23,3.92-8.84-1.15,7.02-20.18-.62-42.89-19.31-53.46-2.5-1.41-6.91-2.66-8.83-4.06-3.92-2.87-1.13-9.32,4.35-7.71,18.82,5.54,34.1,25.88,35.1,45.35l.24.41Z"/>
    <path class="st1" d="M144.44,97.68c12.51,3.15,22.1,14.56,22.92,27.49.78,12.26-1.34,19.74,5.97,30.91,3.12,4.77,8.17,7.5,7.68,13.97-.36,4.73-4.44,8.93-9.14,9.42l-19.49.1c-.35,2.24-.56,4.16-1.49,6.25-5.52,12.4-23.72,11.8-28.35-.88-.66-1.81-.75-3.56-1.07-5.37l-19.74-.12c-4.62-.67-8.52-4.73-8.89-9.41-.51-6.48,4.43-9.08,7.58-13.82,7.42-11.16,5.28-19.01,6.07-31.32s10.56-24.15,22.92-27.23c.26-.4-.08-7.78.03-9.13.76-9.75,14.08-9.85,14.96.01.12,1.36-.22,8.71.04,9.11ZM134.81,105.79c-5.27.49-10.85,3.37-14.26,7.4-7.98,9.42-3.97,20.04-5.87,31-1.27,7.33-4.54,14.23-9.11,20.03-.98,1.24-5.87,5.39-2.69,6.36l67.2.13c4.43-.89.4-3.71-.91-5.31-7.17-8.77-10.4-18.32-10.85-29.64-.28-6.97,1.03-12.4-2.52-18.88-4.12-7.5-12.42-11.89-20.98-11.1ZM130.48,179.46c.02,5.64,7.18,8.75,11.09,4.51.85-.92,2.14-3.39,1.42-4.51h-12.51Z"/>
    <path class="st1" d="M158.53,86.94c2.7-.27,9.59,3.82,11.89,5.51,10.22,7.5,15.93,20.84,14.43,33.47-.23,1.93-1.19,6.87-2.17,8.4-1.52,2.38-4.7,2.76-6.83.92-2.82-2.43-.46-6.5-.03-9.59,1.56-11.22-3.79-22.48-13.72-27.99-1.73-.96-4.22-1.58-5.67-2.58-3.46-2.36-2.02-7.74,2.09-8.15Z"/>
    <path class="st2" d="M134.81,105.79c8.57-.8,16.87,3.59,20.98,11.1,3.56,6.48,2.25,11.91,2.52,18.88.45,11.32,3.67,20.86,10.85,29.64,1.31,1.6,5.34,4.41.91,5.31l-67.2-.13c-3.18-.97,1.71-5.11,2.69-6.36,4.57-5.8,7.83-12.71,9.11-20.03,1.9-10.96-2.11-21.58,5.87-31,3.41-4.03,9-6.91,14.26-7.4Z"/>
  </g>
</svg>