<?xml version="1.0" encoding="UTF-8"?>
<svg id="Calque_1" xmlns="http://www.w3.org/2000/svg" version="1.1" viewBox="0 0 255.12 255.12">
  <!-- Generator: Adobe Illustrator 29.5.1, SVG Export Plug-In . SVG Version: 2.1.0 Build 141)  -->
  <defs>
    <style>
      .st0 {
        opacity: .63;
      }

      .st0, .st1 {
        fill: #092b3e;
      }

      .st2 {
        fill: #be1622;
      }
    </style>
  </defs>
  <circle class="st2" cx="119.6" cy="121.82" r="60.09"/>
  <ellipse class="st0" cx="95.85" cy="192.34" rx="20.31" ry="5.27"/>
  <g>
    <path class="st1" d="M179.21,75.68c8.12-1.46,14.25,3.66,15,11.66,2.12,22.51-1.59,48.37-.1,71.24-3.13,14.47-23.1,13.71-24.54-1.54-2.12-22.51,1.59-48.37.1-71.24.67-4.75,4.79-9.27,9.54-10.12Z"/>
    <path class="st1" d="M147.25,100.26c7.5-1.35,14.1,3.3,14.97,10.87,1.7,14.84-1.11,32.96-.19,48.15-3.41,13.59-22.79,12.54-24.39-1.45-1.07-9.39-1.22-38.32.07-47.45.67-4.75,4.79-9.27,9.54-10.12Z"/>
    <path class="st1" d="M115.3,124.84c7.5-1.35,14.1,3.3,14.97,10.87.52,4.52.59,20.89-.55,24.85-3.47,12.05-22.46,10.95-24.03-2.73-.52-4.59-.61-20.06.35-24.23s5.13-8.02,9.26-8.76Z"/>
  </g>
</svg>