<?xml version="1.0" encoding="UTF-8"?>
<svg id="Calque_1" xmlns="http://www.w3.org/2000/svg" version="1.1" viewBox="0 0 255.12 255.12">
  <!-- Generator: Adobe Illustrator 29.5.1, SVG Export Plug-In . SVG Version: 2.1.0 Build 141)  -->
  <defs>
    <style>
      .st0 {
        opacity: .63;
      }

      .st0, .st1 {
        fill: #092b3e;
      }

      .st2 {
        fill: #be1622;
      }

      .st3 {
        fill: #fff;
        stroke: #092b3e;
        stroke-miterlimit: 10;
        stroke-width: 8px;
      }
    </style>
  </defs>
  <circle class="st2" cx="108.75" cy="121.82" r="60.09"/>
  <ellipse class="st0" cx="85" cy="192.34" rx="20.31" ry="5.27"/>
  <g>
    <rect class="st3" x="105.73" y="86.94" width="97.44" height="21.25" rx="7.3" ry="7.3"/>
    <path class="st3" d="M119,108.19c5.41,11.62,19.24,19.89,35.45,19.89s30.04-8.27,35.45-19.89h-70.91Z"/>
    <path class="st1" d="M181.25,145.26c-.92,2.55-7.57,7.01-10.09,8.37-11.16,6-25.67,5.42-36.42-1.37-1.64-1.04-5.69-4.03-6.65-5.57-1.49-2.4-.47-5.43,2.11-6.56,3.4-1.5,6.07,2.39,8.67,4.1,9.46,6.23,21.92,6.24,31.16-.34,1.61-1.15,3.24-3.13,4.77-4.01,3.62-2.11,7.86,1.5,6.46,5.4Z"/>
    <path class="st1" d="M134.23,177.66l-6.36-3.42c-3.42-2.6-7.68-5.37-10.52-8.74-3.37-3.99.44-9.1,5.2-7.24,14.46,15.73,38.07,19.76,56.23,8.3,2.43-1.53,5.61-4.83,7.76-5.85,4.39-2.09,8.74,3.42,4.73,7.48-13.79,13.95-38.94,17.78-56.56,9.45l-.47.02Z"/>
  </g>
</svg>