<?xml version="1.0" encoding="UTF-8"?>
<svg id="Calque_1" xmlns="http://www.w3.org/2000/svg" version="1.1" viewBox="0 0 255.12 255.12">
  <!-- Generator: Adobe Illustrator 29.5.1, SVG Export Plug-In . SVG Version: 2.1.0 Build 141)  -->
  <defs>
    <style>
      .st0 {
        opacity: .63;
      }

      .st0, .st1 {
        fill: #092b3e;
      }

      .st2 {
        fill: #fff;
      }

      .st3 {
        fill: #be1622;
      }
    </style>
  </defs>
  <circle class="st3" cx="117.2" cy="109.58" r="60.09"/>
  <g>
    <path class="st2" d="M149.98,124.52l-8.12-.18c.38,3.66-2.3-1.08-5.86-.34-2.05.43-12.23-.39-14.29-.82-2.75-.57-5.58-3.68-6.08-6.41-.4-2.23-.45-10.7,0-12.86.61-2.95,3.93-6.11,6.95-6.53l47.5.12c3.02.81,6.09,3.75,6.53,6.95.33,2.37.31,9.39,0,11.78-.41,3.13-3.58,6.47-6.74,7.07-1.84.35.68,2.32-12.96,1.04-3.59-.34-7.37,3.81-6.92.18Z"/>
    <path class="st2" d="M174.33,131.22c-1.89,7.55-5.63,14.57-10.35,20.71-9.46-8.78-26.36-8.76-35.84,0-4.79-6.03-8.33-13.08-10.36-20.54l7.06,1.16c7.72.28,15.49.12,21.1-5.91,4.23,3.8,8.38,5.56,14.08,5.91,4.65.28,9.88.04,14.31-1.33Z"/>
    <path class="st3" d="M142.36,172.07c4.33-.54,9.92-.11,13.67,2.28,4.01,2.56,4.19,5.22.12,7.9-5.41,3.56-15.28,3.52-20.59-.25-6.8-4.82,1.98-9.32,6.8-9.92Z"/>
    <path class="st3" d="M159.21,166.07c-8.05-4.13-18.26-4.17-26.3,0v-5.75c0-.49,1.49-2.21,1.97-2.63,5.16-4.58,17.17-4.48,22.37,0,.47.41,1.96,2.17,1.96,2.64v5.75Z"/>
  </g>
  <ellipse class="st0" cx="93.45" cy="180.11" rx="20.31" ry="5.27"/>
  <path class="st1" d="M183.21,132.21c2.34-7.82,2.4-15.99,2.37-24.1l13.06-13.26c.08-.3-.15-.42-.29-.62-.31-.46-5.26-5.42-5.61-5.6-.48-.25-.48-.07-.83.16-1.41.97-7.93,8.56-8.54,8.56-3.09-4.68-7.54-8.02-13.19-8.83-15.43.74-32.02-1.13-47.32-.06-6,.42-10.9,4.01-14.12,8.89l-8.92-8.85-6.34,6.1,13.06,13.5c0,8.11-.03,16.29,2.37,24.1h-15.45v8.88h18.41c2.69,7.39,7.27,13.84,12.08,19.97,1.02,7.21-2.03,18.11,2.44,24.19,8.2,11.17,30.29,11.26,38.91.55,5.09-6.33,1.82-17.11,2.87-24.75,4.8-6.13,9.44-12.58,12.08-19.97h18.41v-8.88h-15.45ZM115.63,103.91c.61-2.95,3.93-6.11,6.95-6.53l47.5.12c3.02.81,6.09,3.75,6.53,6.95.33,2.37.31,9.39,0,11.78-.41,3.13-3.55,6.63-6.74,7.07-.14.02-.3.04-.48.05v.18h-46.58v-.21c-.46-.04-.84-.09-1.1-.14-2.75-.57-5.58-3.68-6.08-6.41-.4-2.23-.45-10.7,0-12.86ZM156.15,182.25c-5.41,3.56-15.28,3.52-20.59-.25-6.8-4.82,1.98-9.32,6.8-9.92,4.33-.54,9.92-.11,13.67,2.28,4.01,2.56,4.19,5.22.12,7.9ZM159.21,166.07c-8.05-4.13-18.26-4.17-26.3,0v-5.75c0-.49,1.49-2.21,1.97-2.63,5.16-4.58,17.17-4.49,22.37,0,.47.41,1.96,2.17,1.96,2.64v5.75ZM163.98,151.93c-9.46-8.78-26.36-8.76-35.84,0-4.24-5.33-7.49-11.47-9.59-17.98h55.01c-2.05,6.52-5.43,12.59-9.58,17.98Z"/>
</svg>