<?xml version="1.0" encoding="UTF-8" standalone="no"?>
<svg
   id="Calque_1"
   version="1.1"
   viewBox="0 0 841.89 283.46"
   sodipodi:docname="logo_stopvol.svg"
   inkscape:version="1.4 (86a8ad7, 2024-10-11)"
   xmlns:inkscape="http://www.inkscape.org/namespaces/inkscape"
   xmlns:sodipodi="http://sodipodi.sourceforge.net/DTD/sodipodi-0.dtd"
   xmlns="http://www.w3.org/2000/svg"
   xmlns:svg="http://www.w3.org/2000/svg">
  <sodipodi:namedview
     id="namedview32"
     pagecolor="#ffffff"
     bordercolor="#000000"
     borderopacity="0.25"
     inkscape:showpageshadow="2"
     inkscape:pageopacity="0.0"
     inkscape:pagecheckerboard="0"
     inkscape:deskcolor="#d1d1d1"
     inkscape:zoom="0.70089988"
     inkscape:cx="424.45435"
     inkscape:cy="73.476971"
     inkscape:window-width="1920"
     inkscape:window-height="991"
     inkscape:window-x="-9"
     inkscape:window-y="454"
     inkscape:window-maximized="1"
     inkscape:current-layer="g29" />
  <!-- Generator: Adobe Illustrator 29.5.1, SVG Export Plug-In . SVG Version: 2.1.0 Build 141)  -->
  <defs
     id="defs1">
    <style
       id="style1">
      .st0 {
        fill: #fff;
      }

      .st1 {
        fill: #be1622;
      }

      .st2 {
        isolation: isolate;
      }
    </style>
  </defs>
  <g
     class="st2"
     id="g3">
    <g
       class="st2"
       id="g2">
      <path
         class="st1"
         d="M626.13,107.33c1.57,8.38,2.9,15.33,4,20.86,1.1,5.52,2.06,10.34,2.88,14.45s1.59,7.81,2.29,11.1,1.47,6.92,2.29,10.87c.82,3.96,1.76,8.58,2.82,13.87s2.37,11.93,3.94,19.92c3.84-5.33,6.95-9.62,9.34-12.87,2.39-3.25,4.25-5.8,5.58-7.64,1.33-1.84,2.31-3.17,2.94-4,.63-.82,1.1-1.45,1.41-1.88.31-.43.63-.86.94-1.29.31-.43.84-1.16,1.59-2.17.74-1.02,1.86-2.54,3.35-4.58,1.49-2.04,3.56-4.9,6.23-8.58h-23.15c-.24-1.1-.37-1.8-.41-2.12-.04-.31-.12-.72-.24-1.23-.12-.51-.29-1.39-.53-2.64-.24-1.25-.63-3.33-1.18-6.23h47.83c-.08.16-.84,1.23-2.29,3.23-1.45,2-3.35,4.6-5.7,7.81-2.35,3.21-5.01,6.86-7.99,10.93-2.98,4.07-6.01,8.25-9.11,12.51-3.1,4.27-6.15,8.46-9.17,12.57-3.02,4.11-5.72,7.8-8.11,11.05-2.39,3.25-4.35,5.93-5.88,8.05s-2.41,3.33-2.64,3.64h-13.4c-.16-.78-.51-2.53-1.06-5.23-.55-2.7-1.22-6.07-2-10.11-.78-4.03-1.69-8.58-2.7-13.63-1.02-5.05-2.08-10.3-3.17-15.75-1.1-5.44-2.19-10.91-3.29-16.39-1.1-5.48-2.16-10.73-3.17-15.75l7.76-28.79ZM696.64,214.74c-3.53.08-6.8-.33-9.81-1.23-3.02-.9-5.74-2.17-8.17-3.82-2.43-1.64-4.49-3.64-6.17-5.99-1.69-2.35-2.96-4.97-3.82-7.87,1.8-2.51,3.72-5.15,5.76-7.93,2.04-2.78,4.15-5.66,6.35-8.64-.71,3.21-.84,6.21-.41,8.99.43,2.78,1.37,5.23,2.82,7.34,1.45,2.12,3.37,3.84,5.76,5.17,2.39,1.33,5.11,2.16,8.17,2.47,3.53.31,6.99-.12,10.4-1.29,3.41-1.18,6.6-2.86,9.58-5.05.47-.31.74-.51.82-.59l.24-.24c2.98-2.27,5.54-4.95,7.7-8.05,2.15-3.09,3.74-6.4,4.76-9.93.78-3.06.98-6.03.59-8.93-.39-2.9-1.31-5.48-2.76-7.75-1.45-2.27-3.39-4.13-5.82-5.58-2.43-1.45-5.29-2.29-8.58-2.53-.39-.08-.94-.12-1.65-.12-2.9,0-5.76.49-8.58,1.47-2.82.98-5.48,2.33-7.99,4.05,2.51-3.53,4.78-6.68,6.82-9.46,2.04-2.78,3.6-4.92,4.7-6.4,1.72-.31,3.48-.55,5.29-.71.47-.08.94-.12,1.41-.12h1.41c5.25,0,9.89.98,13.92,2.94,4.03,1.96,7.25,4.6,9.64,7.93,2.39,3.33,3.94,7.19,4.64,11.57.71,4.39.43,9.01-.82,13.87-1.41,5.09-3.66,9.83-6.76,14.22-3.1,4.39-6.72,8.19-10.87,11.4-4.15,3.21-8.7,5.78-13.63,7.7s-9.91,2.96-14.92,3.11Z"
         id="path1" />
      <path
         class="st1"
         d="M761.62,143.17h12.22l-15.39,57.7h32.2c-1.8,1.94-3.31,3.55-4.52,4.83-1.22,1.28-2.45,2.6-3.7,3.96-1.25,1.36-2.27,2.46-3.05,3.32h-36.43l18.68-69.8Z"
         id="path2" />
    </g>
  </g>
  <g
     class="st2"
     id="g7">
    <g
       class="st2"
       id="g6">
      <path
         class="st0"
         d="M57.85,170.12c-4.42-.74-7.8-2.28-10.15-4.63s-3.85-5.06-4.49-8.15c-.65-3.08-.51-6.33.41-9.74.92-3.41,2.44-6.58,4.56-9.53,3.22-4.6,7.02-7.75,11.39-9.46,4.37-1.7,8.77-2.56,13.19-2.56h20.99c-1.1,1.21-2.21,2.42-3.31,3.63-1.01,1.02-2.07,2.14-3.18,3.35-1.1,1.21-2.16,2.32-3.18,3.34-1.01,1.02-1.84,1.91-2.49,2.65-.65.74-.97,1.16-.97,1.26h-11.6c-2.49,0-4.79.71-6.9,2.12-2.12,1.42-3.55,3.31-4.28,5.69-.74,3.01-.46,5.32.83,6.92,1.29,1.6,3.18,2.4,5.66,2.4h1.8c3.96,0,7.39.65,10.29,1.93,2.9,1.29,5.22,3.09,6.97,5.39,1.75,2.3,2.83,5.04,3.25,8.22.41,3.18.11,6.61-.9,10.29-1.01,3.78-2.65,7.18-4.9,10.22-2.26,3.04-4.9,5.64-7.94,7.8-3.04,2.16-6.4,3.82-10.08,4.97-3.68,1.15-7.41,1.73-11.19,1.73h-18.92l13.26-14.22h9.39c1.75,0,3.5-.27,5.25-.82,1.75-.55,3.36-1.33,4.83-2.33,1.47-1.01,2.76-2.22,3.87-3.64,1.1-1.42,1.89-3.04,2.35-4.87,1.01-3.48.5-6.27-1.52-8.37-2.03-2.11-4.83-3.16-8.42-3.16-.74,0-1.4-.05-2-.14-.6-.09-1.22-.18-1.86-.28Z"
         id="path3" />
      <path
         class="st0"
         d="M91.69,140.29c1.93-2,3.73-3.87,5.39-5.61,1.47-1.55,2.97-3.12,4.49-4.72s2.78-2.9,3.8-3.9h57.59c-1.84,1.92-3.59,3.74-5.25,5.47-1.47,1.55-2.97,3.15-4.49,4.79-1.52,1.64-2.79,2.96-3.8,3.97h-18.64l-18.09,67.95h-14.36l18.09-67.95h-24.72Z"
         id="path4" />
      <path
         class="st0"
         d="M145.55,166.95c1.47-5.61,3.94-10.91,7.39-15.88,3.45-4.97,7.5-9.37,12.15-13.19,4.65-3.82,9.71-6.9,15.19-9.25,5.48-2.35,11.07-3.75,16.78-4.21.55,0,1.1-.02,1.66-.07.55-.05,1.11-.07,1.66-.07,6.17,0,11.6,1.15,16.29,3.45,4.7,2.3,8.47,5.41,11.32,9.32,2.85,3.91,4.7,8.45,5.52,13.6.83,5.16.51,10.59-.96,16.3-1.57,5.99-4.17,11.56-7.8,16.71-3.64,5.16-7.92,9.67-12.84,13.53-4.93,3.87-10.29,6.91-16.09,9.11-5.8,2.21-11.65,3.36-17.54,3.45-5.99.09-11.37-.95-16.16-3.11-4.79-2.16-8.68-5.16-11.67-8.98-2.99-3.82-4.97-8.38-5.94-13.67-.97-5.29-.62-10.98,1.04-17.06ZM159.91,166.95c-1.02,3.78-1.31,7.39-.9,10.84s1.47,6.51,3.18,9.18c1.7,2.67,3.96,4.83,6.77,6.49,2.81,1.66,6.1,2.58,9.87,2.76,4.05.37,8.12-.11,12.22-1.45,4.1-1.33,7.89-3.29,11.39-5.87l1.24-.97c3.5-2.76,6.51-5.94,9.04-9.53,2.53-3.59,4.35-7.46,5.46-11.6.92-3.59,1.15-7.09.69-10.5-.46-3.41-1.52-6.47-3.18-9.18-1.66-2.71-3.94-4.92-6.84-6.63-2.9-1.7-6.28-2.69-10.15-2.97h-1.79c-4.05,0-8.03.78-11.95,2.35-3.91,1.57-7.55,3.68-10.91,6.35-3.36,2.67-6.28,5.8-8.77,9.39s-4.28,7.37-5.38,11.32Z"
         id="path5" />
      <path
         class="st0"
         d="M232.55,208.24l10.36-38.81h31.21c2.21,0,4.37-.35,6.49-1.04,2.12-.7,4.05-1.64,5.8-2.84,1.75-1.2,3.27-2.66,4.56-4.37,1.29-1.71,2.21-3.63,2.76-5.76.55-2.22.64-4.28.28-6.17-.37-1.9-1.13-3.49-2.28-4.79-1.15-1.29-2.58-2.31-4.28-3.05-1.71-.74-3.57-1.11-5.59-1.11h-31.21c2.12-2.19,4.05-4.24,5.8-6.15,1.56-1.64,3.08-3.21,4.56-4.72,1.47-1.5,2.53-2.62,3.18-3.35h21.54c4.14,0,7.82.76,11.05,2.28,3.22,1.52,5.85,3.61,7.87,6.28,2.02,2.67,3.38,5.8,4.07,9.39.69,3.59.48,7.41-.62,11.46-1.1,4.05-2.92,7.8-5.45,11.25-2.53,3.45-5.5,6.42-8.91,8.91-3.41,2.49-7.14,4.44-11.19,5.87-4.05,1.43-8.15,2.14-12.29,2.14h-16.85l-6.49,24.58h-14.36Z"
         id="path6" />
    </g>
  </g>
  <path
     class="st1"
     d="M400.56,128.66h-3.37c-.37,0-.73,0-1.1.04.19-.38.39-.73.6-1.1,1.36.21,2.67.55,3.87,1.06Z"
     id="path7" />
  <path
     class="st0"
     d="M537.78,107.67c2.71.37,6.3,3.17,7.76,5.41,6.3,11.13,11.4,23.29,17.69,34.38,3.08,5.44,4.76,5.54,10.3,7.89,6.28,2.66,14.13,4.81,20.03,7.88,5.24,2.72,6.09,8.8,6.46,14.24.64,9.25.69,24.02,0,33.24-.35,4.61-2.14,9.45-7.35,9.9-3.48.3-7.41-.21-10.95-.05-.28-.06-.36-.24-.45-.49-.61-1.65-.73-3.83-1.48-5.74-2.51-6.47-8.07-12.5-14.37-15.43-17.79-8.29-38.11,2.56-41.29,21.7h-20.07l.31-112.92h33.41ZM554.87,152.21c-.28-1.32-1-2.94-1.61-4.2-3.39-7.01-7.15-14.32-10.77-21.22-1-1.9-3.97-8.19-5.17-9.26-.2-.18-.98-.77-1.11-.77h-22.11v34.97l.47.47h40.3Z"
     id="path8" />
  <path
     class="st0"
     d="M567.31,210.07c9.72,10.1,6.42,27.15-5.82,33.59-18.49,9.73-38.51-9.96-28.97-28.67,6.77-13.29,24.53-15.58,34.8-4.92h-.01ZM549.79,216.27c-10.45,1.64-8.32,18.65,3.3,16.79,10.73-1.72,8.98-18.72-3.3-16.79h0Z"
     id="path9" />
  <g
     id="g18">
    <path
       class="st0"
       d="M334.22,208.81c.75.31,1.55.53,2.34.76,1.42.41,3.32,1.08,4.77.6.65-.22.51-.53.48-1.13-.13-2.77-.79-5.62-.91-8.41-.11-2.65-.11-3.79,2.26-5.39,3.16-2.14,6.94-3.42,10.16-5.35.31-.18.76-.46,1.02-.69.46-.43.64-1.15,1.38-1.27s1.02.16,1.45.63c3.41,3.73,6.1,8.17,9.59,11.92,2.21,2.38,6.33,6.3,10.01,5.79,3.21-.45,7.01-3.19,9.5-5.06,1.73-1.3,3.66-2.74,5.2-4.21.16-.15.48-.3.54-.53.03-.12-.11-.87-.15-1.05-.38-1.7-2.12-4.16-3.95-4.71-.44-.13-.89.15-1.31.33-2.23.95-4.1,2.4-6.14,3.64-1.23.75-3.04,1.98-4.5,1.26-1.85-.91-4.65-5.33-5.82-7.1-2.46-3.74-4.75-7.58-7.32-11.25l-.09-.02c-.09.06-.17.13-.28.17-2.47,1.03-4.95,2.06-7.44,3.02-2.27.88-4.61.94-6.97,1.45-1.15.25-3.02,1.56-4.13,2.16-4.13,2.24-10.75,5.29-11.83,10.07-.63,2.79.06,6.78.73,9.56.39,1.63,1.03,3.18,1.4,4.81h0Z"
       id="path10" />
    <path
       class="st0"
       d="M353.58,159.82c-.17-.1-.62.17-.82.22-.5.12-1.7.2-1.87-.41s.12-1.07.71-1.35c.53-.25,1.2-.42,1.76-.67,2.51-1.09,5.53-2.84,8.2-3.47.89-.21,1.21-.2,2.06.1,2.55.89,4.96,2.78,7.58,3.57.48.14.98.35,1.4-.03.46-.42,1.12-1.42,1.56-1.95.21-.25.97-.92.9-1.21-.13-.5-2.21-2.12-2.73-2.51-2.55-1.88-5.97-3.83-9.16-4.46-5.52-1.09-11.98,1.34-16.76,3.8-3.61,1.86-5.32,3.45-9.64,4.2-.45.08-1.07.09-1.47.2-.07.02-.13,0-.16.1-.06.15.17,1.13.22,1.36,1.11,5.09,3.36,10.82,5.4,15.67.77,1.84,1.88,4.68,2.97,6.3.55.82,1.32.9,2.3.96,2.31.14,4.49-.46,6.68-1.05,2.29-.98,4.82-1.65,7.1-2.61.58-.24,2.39-1.14,2.55-1.7.17-.6-.6-2.27-.89-2.89-1.95-4.1-4.78-7.95-7.52-11.6-.13-.18-.27-.35-.35-.56h-.02Z"
       id="path11" />
    <path
       class="st0"
       d="M390.55,189.61c.11.12.41.31.57.47.99,1.04,1.91,2.23,2.48,3.53.26.58.36,1.21.67,1.75,1.4.4,2.76.74,4.02,1.47,2.23,1.29,4.56,4.26,7.45,3.48.77-.21.72-.51.66-1.21-.21-2.72-4.11-7.17-6.11-9.15-1.2-1.19-2.82-2.79-4.28-3.67-.77-.47-1.07-.62-1.95-.27-.94.37-2.73,1.64-3.22,2.47-.14.24-.49.9-.29,1.12h0Z"
       id="path12" />
    <path
       class="st0"
       d="M334.28,211.4c-.75,1.73-3.46,1.68-5.1,1.38-1.04-.19-2.68-.95-3.5,0-.91,1.05.81,2.39,1.63,2.98,2.96,2.12,5.48,2.5,9.13,2.72,1.95.12,4.1.17,6.04-.07.32-.04,1.02-.13,1.21-.39.28-.37-.04-1.7-.15-2.18-.09-.4-.92-3.34-1.08-3.44-.6-.13-1.21.07-1.79.09-1.04.05-1.84-.08-2.84-.32-.58-.14-3.18-.99-3.55-.77h0Z"
       id="path13" />
    <path
       class="st0"
       d="M338.82,174.08c.01-.2-.08-.38-.15-.56-.65-1.76-1.54-3.51-2.16-5.29-.11-.11-2.75-.59-3.14-.65-.24-.04-1.34-.24-1.45-.17-.39,1.32-1.09,2.55-1.56,3.84-.06.17-.3.68-.2.8.13.16,1.16.53,1.42.62,1.5.55,3.21.95,4.81,1.16.81.11,1.62.13,2.43.25h0Z"
       id="path14" />
    <path
       class="st0"
       d="M377.79,155.99c-.34-.03-.67-.03-1.01,0-.86.76-1.65,1.81-2.24,2.77-.16.26-.57.93-.53,1.2.03.24.52.81.71.98,1.96,1.76,6.07,1.4,7.17-1.09,1.31-2.95-1.62-3.67-4.1-3.86Z"
       id="path15" />
    <path
       class="st0"
       d="M321.88,148.4c3.83,4.65,9.6,6.28,15.69,4.96,8-1.73,12.74-9.79,10.58-17.15-3.13-10.66-17.43-13.64-25.42-5.63-4.93,4.95-5.27,12.45-.85,17.82h0Z"
       id="path16" />
    <path
       class="st0"
       d="M331.79,143.06c-1.25-.04-2.49.49-3.26,1.42-.44.53-.58,1.57.31,1.72.97.17,1.2-.56,1.88-.95.88-.5,1.43-.21,2.31.12.61.23,1.52.91,2.13.39.66-.57.22-1.22-.33-1.65-.77-.6-2.05-1.02-3.05-1.05h0Z"
       id="path17" />
    <path
       class="st0"
       d="M328.73,134.07c-.74-.16-1.08.55-1.61.9-.77.51-1.21.48-2.07.62-.72.12-.66,1.32-.09,1.58,1.18.54,4.06-.88,4.27-2.12.06-.38-.04-.89-.5-.99h0Z"
       id="path18" />
  </g>
  <path
     class="st0"
     d="M335.96,134.08c-.35-.63-1.15-.41-1.78-.56-.92-.21-1.17-.55-1.85-1.07-.56-.43-1.5.39-1.34.96.33,1.19,3.35,2.32,4.5,1.66.35-.2.7-.61.48-1h-.01Z"
     id="path19" />
  <path
     class="st0"
     d="M325.84,169.4c.33-.04.67-.09.99-.18.69-.9,1.23-2.08,1.61-3.14.1-.29.36-1.02.27-1.28-.08-.23-.68-.69-.91-.83-2.29-1.36-6.24-.23-6.79,2.41-.65,3.14,2.37,3.3,4.84,3.02h0Z"
     id="path20" />
  <g
     id="g29">
    <path
       class="st1"
       d="M367.91,146.62c-.01.33-3.87,3.09-4.52,3.8-3.82,4.08-3.63,8.87-3.51,13.8-5.53-.15-9.87,4.19-10.09,8.59-.09,1.55.28,3.65.71,5.11-5.38-1.73-6.42-5.77-5.64-10.09,0,0,.01-.02.01-.04,1.66-5.78,6.04-7.43,11.61-6.39.21.08.42.15.63.21-.42-1.7-2.52-2.37-2.78-4.21-1.06-7.36,5.04-11.8,13.59-10.78h0Z"
       id="path23" />
    <path
       class="st1"
       d="M415.25,200.05c-2.03,4.6-8.7,7.81-13.99,9.4-.09.02-.16.05-.25.07-.18.05-.35.08-.53.12-.43.07-.81.12-1.1.19-.19.05-.2.05-.03,0-4.97.78-9.96-.09-15.01-2.43-10.53-5.64-13.81-17.76-5.14-26.28.84-.83,4.6-3.72,5.58-4.07.44-.17.65.08.52.42-6.57,6.09-8.34,13.37-3.06,20.62,4.38,6.03,12.54,8.07,20.61,7.15,4.68-.53,9.09-2.41,12.39-5.2h.01Z"
       id="path25" />
    <path
       class="st1"
       d="M404.39,197.64c-.49-.06-5.34-1.23-4.44-1.96,12.88,2.49,19.6-11.15,14.62-19.64,1.65-.33,4.47,2.35,5.31,3.41,6.16,7.87-4.86,19.46-15.49,18.19Z"
       id="path27" />
    <path
       class="st1"
       d="M502.1,121.85v80.6c-1.02,9.29-7.94,16.82-16.51,18.1-20.81-.07-41.64.1-62.46,0-4.05-.03-8.5.54-12.5-.61-3.44-.99-6.65-3.35-9.13-6.41h.16c7.72,8.23,24.51,7.44,33.45,0,1.26-1.06,2.37-2.25,3.26-3.55,2.71-3.95,4.96-12.1.53-15.57-3.08-2.42-6.82.24-10.17.78-1.07-.46-1.07-1.4-.87-2.39.91-4.35,13.27-9.25,17-12.82,1.75-1.67,3.14-4.34,4.68-6.23.04,1.31-.73,2.52-.87,3.86-1.22,11.95,10.75,20.59,22.45,19.64,11.14-.9,16.28-9.09,21.43-17.44l.69.16c0,.08,0,.16.01.23.3-.56.62-1.1.92-1.66,1.54-2.8,2.96-5.62,3.81-8.61,1.28-4.49.43-9.31-1.22-14.06-.92.38-1.8.88-2.59,1.48-1.95,1.47-3.45,3.59-4.08,6.33-.92.1-.54,0-.69-.49-2.24-7.18-9.61-12.57-17.59-11.61-4.14.5-3.56,3.55-4.17,6.72-.83-1.17-.86-2.68-1.4-4.01-4.42-10.9-21.13-8.79-30.1-5.05,3.3,2.57,5.65,4.6,6.79,8.72.84,3.03.26,6.87,3.29,8.93,2.67,1.8,6.08,1.1,9.07.82.76.63-2.46,2.26-2.9,2.42-4.19,1.54-7.71.72-11.96.3-.77-.08-1.52.42-2.2-.19-.71-1.82-.76-3.8-1.46-5.65-3.99-10.41-17.25-7.65-24.97-3.08l-4.21,3.51c1.11-6.6-2.28-15.21-10.59-14.07-.57.08-1.33.27-1.78.63-.69.54-.62,1.82-1.38,1.7-.84-.12-1.98-1.73-2.85-2.3-11.72-7.73-26.44,6.07-23.59,18.06.08.34.47,1.09-.19,1.02-3.39-5.66-5.69-12.31-4.56-18.94l1.03-.22c.89-15.1,21.69-18.33,28.59-5.02h.68c.3-1.09,2.13-2.26,3.17-2.82,9.68-5.2,17.94,3.86,17.38,12.9,3.8-3.59,8.18-6.86,13.59-7.73l-.33-.95c1.91-.52.96-3.86.38-5.32-1.95-4.87-10.22-12.45-15.84-8.11l-2.32,2.3c.29-4.53.92-9.47-.88-13.76-1.11-2.64-3.11-4.49-5.55-5.65-1.2-.59-2.51-.98-3.87-1.22,1.47-2.79,3.61-5.16,6.16-7.29l.05-25.26c4.33-40.74,49.39-59.94,76.65-29.39,6.7,7.51,11.58,18.27,12.23,28.83.2,3.39.6,7.82-2.85,9.44-2.08.98-9.44.71-11.47-.49-3.49-2.05-2.43-4.93-2.83-8.37-3.17-26.96-36.07-35.3-49.93-12.41-6.7,11.05-4.24,23.42-4.68,35.92,16.24.11,32.5-.14,48.74-.01,4.62.03,10.15-.29,14.59.01,8.36.56,15.23,6.29,16.76,15.36h0Z"
       id="path29" />
  </g>
  <g
     id="g31">
    <path
       class="st1"
       d="M702.9,167.3h39.97c2.44,0-.94,9.68-2.23,11.27-2.36,2.93-9.48,5.32-12.71,4.28-1.6-.52-3.29-2.91-4.81-3.01-1.8-.11-3.14,2.46-4.71,3.01-3.54,1.25-11.15-1.31-13.54-4.65-.99-1.38-4.4-10.91-1.96-10.91h0ZM718.34,173.3c-3.1-1.11-6.8-2.61-9.51.32,1.06,5.46,10.11,6.4,9.51-.32ZM727.44,173.3c-.23,6.91,7.13,5.25,9.51.92.63-3.26-8.13-1.77-9.51-.92Z"
       id="path30" />
    <path
       class="st1"
       d="M711.57,189.18c3.8-1.08,13.46-4.32,15.9.02l-.08.05c-1-.96-2.34-1.08-3.65-1.18-4.03-.41-8.36.56-12.17,1.11h0Z"
       id="path31" />
  </g>
  <path
     class="st1"
     d="M180.98,180.2h18.81l-4.36-15.24h0c1.76-1.45,2.88-3.65,2.88-6.12,0-4.38-3.55-7.93-7.93-7.93s-7.93,3.55-7.93,7.93c0,2.46,1.12,4.66,2.88,6.12h0l-4.36,15.24h0Z"
     id="path32" />
</svg>
