<?xml version="1.0" encoding="UTF-8" standalone="no"?>
<svg
   version="1.1"
   viewBox="0 0 299.99999 300.00001"
   width="300"
   height="300"
   id="svg9"
   sodipodi:docname="picto_stopvol.svg"
   inkscape:version="1.4 (86a8ad7, 2024-10-11)"
   xmlns:inkscape="http://www.inkscape.org/namespaces/inkscape"
   xmlns:sodipodi="http://sodipodi.sourceforge.net/DTD/sodipodi-0.dtd"
   xmlns="http://www.w3.org/2000/svg"
   xmlns:svg="http://www.w3.org/2000/svg">
  <defs
     id="defs9" />
  <sodipodi:namedview
     id="namedview9"
     pagecolor="#ffffff"
     bordercolor="#000000"
     borderopacity="0.25"
     inkscape:showpageshadow="2"
     inkscape:pageopacity="0.0"
     inkscape:pagecheckerboard="0"
     inkscape:deskcolor="#d1d1d1"
     inkscape:zoom="1.8219785"
     inkscape:cx="162.18633"
     inkscape:cy="153.95352"
     inkscape:window-width="1920"
     inkscape:window-height="991"
     inkscape:window-x="-9"
     inkscape:window-y="454"
     inkscape:window-maximized="1"
     inkscape:current-layer="svg9" />
  <!-- Generator: Adobe Illustrator 29.5.1, SVG Export Plug-In . SVG Version: 2.1.0 Build 141)  -->
  <g
     id="g9"
     transform="translate(1.4947086,6.0932328)"
     style="fill:#000000">
    <path
       class="st1"
       d="m 89.413551,130.16883 h -3.37 c -0.37,0 -0.73,0 -1.1,0.04 0.19,-0.38 0.39,-0.73 0.6,-1.1 1.36,0.21 2.67,0.55 3.87,1.06 z"
       id="path7"
       style="fill:#000000" />
    <path
       class="st0"
       d="m 226.63355,109.17883 c 2.71,0.37 6.3,3.17 7.76,5.41 6.3,11.13 11.4,23.29 17.69,34.38 3.08,5.44 4.76,5.54 10.3,7.89 6.28,2.66 14.13,4.81 20.03,7.88 5.24,2.72 6.09,8.8 6.46,14.24 0.64,9.25 0.69,24.02 0,33.24 -0.35,4.61 -2.14,9.45 -7.35,9.9 -3.48,0.3 -7.41,-0.21 -10.95,-0.05 -0.28,-0.06 -0.36,-0.24 -0.45,-0.49 -0.61,-1.65 -0.73,-3.83 -1.48,-5.74 -2.51,-6.47 -8.07,-12.5 -14.37,-15.43 -17.79,-8.29 -38.11,2.56 -41.29,21.7 h -20.07 l 0.31,-112.92 h 33.41 z m 17.09,44.54 c -0.28,-1.32 -1,-2.94 -1.61,-4.2 -3.39,-7.01 -7.15,-14.32 -10.77,-21.22 -1,-1.9 -3.97,-8.19 -5.17,-9.26 -0.2,-0.18 -0.98,-0.77 -1.11,-0.77 h -22.11 v 34.97 l 0.47,0.47 h 40.3 z"
       id="path8"
       style="fill:#000000" />
    <path
       class="st0"
       d="m 256.16355,211.57883 c 9.72,10.1 6.42,27.15 -5.82,33.59 -18.49,9.73 -38.51,-9.96 -28.97,-28.67 6.77,-13.29 24.53,-15.58 34.8,-4.92 z m -17.52,6.2 c -10.45,1.64 -8.32,18.65 3.3,16.79 10.73,-1.72 8.98,-18.72 -3.3,-16.79 z"
       id="path9"
       style="fill:#000000" />
    <g
       id="g18"
       transform="translate(-311.14645,1.5088283)"
       style="fill:#000000">
      <path
         class="st0"
         d="m 334.22,208.81 c 0.75,0.31 1.55,0.53 2.34,0.76 1.42,0.41 3.32,1.08 4.77,0.6 0.65,-0.22 0.51,-0.53 0.48,-1.13 -0.13,-2.77 -0.79,-5.62 -0.91,-8.41 -0.11,-2.65 -0.11,-3.79 2.26,-5.39 3.16,-2.14 6.94,-3.42 10.16,-5.35 0.31,-0.18 0.76,-0.46 1.02,-0.69 0.46,-0.43 0.64,-1.15 1.38,-1.27 0.74,-0.12 1.02,0.16 1.45,0.63 3.41,3.73 6.1,8.17 9.59,11.92 2.21,2.38 6.33,6.3 10.01,5.79 3.21,-0.45 7.01,-3.19 9.5,-5.06 1.73,-1.3 3.66,-2.74 5.2,-4.21 0.16,-0.15 0.48,-0.3 0.54,-0.53 0.03,-0.12 -0.11,-0.87 -0.15,-1.05 -0.38,-1.7 -2.12,-4.16 -3.95,-4.71 -0.44,-0.13 -0.89,0.15 -1.31,0.33 -2.23,0.95 -4.1,2.4 -6.14,3.64 -1.23,0.75 -3.04,1.98 -4.5,1.26 -1.85,-0.91 -4.65,-5.33 -5.82,-7.1 -2.46,-3.74 -4.75,-7.58 -7.32,-11.25 l -0.09,-0.02 c -0.09,0.06 -0.17,0.13 -0.28,0.17 -2.47,1.03 -4.95,2.06 -7.44,3.02 -2.27,0.88 -4.61,0.94 -6.97,1.45 -1.15,0.25 -3.02,1.56 -4.13,2.16 -4.13,2.24 -10.75,5.29 -11.83,10.07 -0.63,2.79 0.06,6.78 0.73,9.56 0.39,1.63 1.03,3.18 1.4,4.81 v 0 z"
         id="path2"
         style="fill:#000000" />
      <path
         class="st0"
         d="m 353.58,159.82 c -0.17,-0.1 -0.62,0.17 -0.82,0.22 -0.5,0.12 -1.7,0.2 -1.87,-0.41 -0.17,-0.61 0.12,-1.07 0.71,-1.35 0.53,-0.25 1.2,-0.42 1.76,-0.67 2.51,-1.09 5.53,-2.84 8.2,-3.47 0.89,-0.21 1.21,-0.2 2.06,0.1 2.55,0.89 4.96,2.78 7.58,3.57 0.48,0.14 0.98,0.35 1.4,-0.03 0.46,-0.42 1.12,-1.42 1.56,-1.95 0.21,-0.25 0.97,-0.92 0.9,-1.21 -0.13,-0.5 -2.21,-2.12 -2.73,-2.51 -2.55,-1.88 -5.97,-3.83 -9.16,-4.46 -5.52,-1.09 -11.98,1.34 -16.76,3.8 -3.61,1.86 -5.32,3.45 -9.64,4.2 -0.45,0.08 -1.07,0.09 -1.47,0.2 -0.07,0.02 -0.13,0 -0.16,0.1 -0.06,0.15 0.17,1.13 0.22,1.36 1.11,5.09 3.36,10.82 5.4,15.67 0.77,1.84 1.88,4.68 2.97,6.3 0.55,0.82 1.32,0.9 2.3,0.96 2.31,0.14 4.49,-0.46 6.68,-1.05 2.29,-0.98 4.82,-1.65 7.1,-2.61 0.58,-0.24 2.39,-1.14 2.55,-1.7 0.17,-0.6 -0.6,-2.27 -0.89,-2.89 -1.95,-4.1 -4.78,-7.95 -7.52,-11.6 -0.13,-0.18 -0.27,-0.35 -0.35,-0.56 h -0.02 z"
         id="path3"
         style="fill:#000000" />
      <path
         class="st0"
         d="m 390.55,189.61 c 0.11,0.12 0.41,0.31 0.57,0.47 0.99,1.04 1.91,2.23 2.48,3.53 0.26,0.58 0.36,1.21 0.67,1.75 1.4,0.4 2.76,0.74 4.02,1.47 2.23,1.29 4.56,4.26 7.45,3.48 0.77,-0.21 0.72,-0.51 0.66,-1.21 -0.21,-2.72 -4.11,-7.17 -6.11,-9.15 -1.2,-1.19 -2.82,-2.79 -4.28,-3.67 -0.77,-0.47 -1.07,-0.62 -1.95,-0.27 -0.94,0.37 -2.73,1.64 -3.22,2.47 -0.14,0.24 -0.49,0.9 -0.29,1.12 v 0 z"
         id="path4"
         style="fill:#000000" />
      <path
         class="st0"
         d="m 334.28,211.4 c -0.75,1.73 -3.46,1.68 -5.1,1.38 -1.04,-0.19 -2.68,-0.95 -3.5,0 -0.91,1.05 0.81,2.39 1.63,2.98 2.96,2.12 5.48,2.5 9.13,2.72 1.95,0.12 4.1,0.17 6.04,-0.07 0.32,-0.04 1.02,-0.13 1.21,-0.39 0.28,-0.37 -0.04,-1.7 -0.15,-2.18 -0.09,-0.4 -0.92,-3.34 -1.08,-3.44 -0.6,-0.13 -1.21,0.07 -1.79,0.09 -1.04,0.05 -1.84,-0.08 -2.84,-0.32 -0.58,-0.14 -3.18,-0.99 -3.55,-0.77 z"
         id="path5"
         style="fill:#000000" />
      <path
         class="st0"
         d="m 338.82,174.08 c 0.01,-0.2 -0.08,-0.38 -0.15,-0.56 -0.65,-1.76 -1.54,-3.51 -2.16,-5.29 -0.11,-0.11 -2.75,-0.59 -3.14,-0.65 -0.24,-0.04 -1.34,-0.24 -1.45,-0.17 -0.39,1.32 -1.09,2.55 -1.56,3.84 -0.06,0.17 -0.3,0.68 -0.2,0.8 0.13,0.16 1.16,0.53 1.42,0.62 1.5,0.55 3.21,0.95 4.81,1.16 0.81,0.11 1.62,0.13 2.43,0.25 z"
         id="path6"
         style="fill:#000000" />
      <path
         class="st0"
         d="m 377.79,155.99 c -0.34,-0.03 -0.67,-0.03 -1.01,0 -0.86,0.76 -1.65,1.81 -2.24,2.77 -0.16,0.26 -0.57,0.93 -0.53,1.2 0.03,0.24 0.52,0.81 0.71,0.98 1.96,1.76 6.07,1.4 7.17,-1.09 1.31,-2.95 -1.62,-3.67 -4.1,-3.86 z"
         id="path19"
         style="fill:#000000" />
      <path
         d="m 334.05994,126.0288 c -0.20016,-0.003 -0.40108,-0.003 -0.60156,0.002 -3.84914,0.0874 -7.73226,1.54508 -10.72851,4.54883 -4.93,4.95 -5.26961,12.45031 -0.84961,17.82031 3.83,4.65 9.59945,6.28094 15.68945,4.96094 8,-1.73 12.74008,-9.79039 10.58008,-17.15039 -1.89512,-6.4543 -7.88489,-10.09287 -14.08985,-10.18164 z m -2.07617,6.30078 c 0.12197,0.003 0.24071,0.0405 0.34571,0.12109 0.68,0.52 0.92961,0.85836 1.84961,1.06836 0.63,0.15 1.43125,-0.0694 1.78125,0.56055 v -0.01 h 0.01 c 0.22,0.39 -0.13047,0.8 -0.48047,1 -1.15,0.66 -4.17,-0.47015 -4.5,-1.66015 -0.13,-0.46313 0.46564,-1.09144 0.99414,-1.08008 z m -3.51367,1.71875 c 0.0811,-0.005 0.16727,9.8e-4 0.25977,0.0215 v -0.01 c 0.46,0.1 0.56,0.61023 0.5,0.99023 -0.21,1.24 -3.08953,2.65914 -4.26953,2.11914 -0.57,-0.26 -0.63012,-1.46007 0.0898,-1.58007 0.86,-0.14 1.30031,-0.10915 2.07031,-0.61915 0.46375,-0.30625 0.78154,-0.88837 1.34961,-0.92187 z m 3.31055,9.01172 c 0.003,8e-5 0.007,-9e-5 0.01,0 0.99861,0.0323 2.27148,0.45266 3.03907,1.05078 0.55,0.43 0.99007,1.07844 0.33007,1.64844 -0.61,0.52 -1.5189,-0.15867 -2.1289,-0.38867 -0.88,-0.33 -1.43055,-0.6211 -2.31055,-0.1211 -0.68,0.39 -0.91086,1.12117 -1.88086,0.95117 -0.89,-0.15 -0.74859,-1.1907 -0.30859,-1.7207 0.76799,-0.92758 2.00331,-1.45686 3.25,-1.41992 z"
         id="path37"
         style="" />
    </g>
    <path
       class="st0"
       d="m 14.693551,170.90883 c 0.33,-0.04 0.67,-0.09 0.99,-0.18 0.69,-0.9 1.23,-2.08 1.61,-3.14 0.1,-0.29 0.36,-1.02 0.27,-1.28 -0.08,-0.23 -0.68,-0.69 -0.91,-0.83 -2.29,-1.36 -6.24,-0.23 -6.7900001,2.41 -0.65,3.14 2.3700001,3.3 4.8400001,3.02 v 0 z"
       id="path24"
       style="fill:#000000" />
    <g
       id="g29"
       transform="translate(-311.14645,1.5088283)"
       style="fill:#000000">
      <path
         class="st1"
         d="m 367.91,146.62 c -0.01,0.33 -3.87,3.09 -4.52,3.8 -3.82,4.08 -3.63,8.87 -3.51,13.8 -5.53,-0.15 -9.87,4.19 -10.09,8.59 -0.09,1.55 0.28,3.65 0.71,5.11 -5.38,-1.73 -6.42,-5.77 -5.64,-10.09 0,0 0.01,-0.02 0.01,-0.04 1.66,-5.78 6.04,-7.43 11.61,-6.39 0.21,0.08 0.42,0.15 0.63,0.21 -0.42,-1.7 -2.52,-2.37 -2.78,-4.21 -1.06,-7.36 5.04,-11.8 13.59,-10.78 v 0 z"
         id="path28"
         style="fill:#000000" />
      <path
         class="st1"
         d="m 415.25,200.05 c -2.03,4.6 -8.7,7.81 -13.99,9.4 -0.09,0.02 -0.16,0.05 -0.25,0.07 -0.18,0.05 -0.35,0.08 -0.53,0.12 -0.43,0.07 -0.81,0.12 -1.1,0.19 -0.19,0.05 -0.2,0.05 -0.03,0 -4.97,0.78 -9.96,-0.09 -15.01,-2.43 -10.53,-5.64 -13.81,-17.76 -5.14,-26.28 0.84,-0.83 4.6,-3.72 5.58,-4.07 0.44,-0.17 0.65,0.08 0.52,0.42 -6.57,6.09 -8.34,13.37 -3.06,20.62 4.38,6.03 12.54,8.07 20.61,7.15 4.68,-0.53 9.09,-2.41 12.39,-5.2 h 0.01 z"
         id="path30"
         style="fill:#000000" />
      <path
         class="st1"
         d="m 404.39,197.64 c -0.49,-0.06 -5.34,-1.23 -4.44,-1.96 12.88,2.49 19.6,-11.15 14.62,-19.64 1.65,-0.33 4.47,2.35 5.31,3.41 6.16,7.87 -4.86,19.46 -15.49,18.19 z"
         id="path31"
         style="fill:#000000" />
      <path
         class="st1"
         d="m 502.1,121.85 v 80.6 c -1.02,9.29 -7.94,16.82 -16.51,18.1 -20.81,-0.07 -41.64,0.1 -62.46,0 -4.05,-0.03 -8.5,0.54 -12.5,-0.61 -3.44,-0.99 -6.65,-3.35 -9.13,-6.41 h 0.16 c 7.72,8.23 24.51,7.44 33.45,0 1.26,-1.06 2.37,-2.25 3.26,-3.55 2.71,-3.95 4.96,-12.1 0.53,-15.57 -3.08,-2.42 -6.82,0.24 -10.17,0.78 -1.07,-0.46 -1.07,-1.4 -0.87,-2.39 0.91,-4.35 13.27,-9.25 17,-12.82 1.75,-1.67 3.14,-4.34 4.68,-6.23 0.04,1.31 -0.73,2.52 -0.87,3.86 -1.22,11.95 10.75,20.59 22.45,19.64 11.14,-0.9 16.28,-9.09 21.43,-17.44 l 0.69,0.16 c 0,0.08 0,0.16 0.01,0.23 0.3,-0.56 0.62,-1.1 0.92,-1.66 1.54,-2.8 2.96,-5.62 3.81,-8.61 1.28,-4.49 0.43,-9.31 -1.22,-14.06 -0.92,0.38 -1.8,0.88 -2.59,1.48 -1.95,1.47 -3.45,3.59 -4.08,6.33 -0.92,0.1 -0.54,0 -0.69,-0.49 -2.24,-7.18 -9.61,-12.57 -17.59,-11.61 -4.14,0.5 -3.56,3.55 -4.17,6.72 -0.83,-1.17 -0.86,-2.68 -1.4,-4.01 -4.42,-10.9 -21.13,-8.79 -30.1,-5.05 3.3,2.57 5.65,4.6 6.79,8.72 0.84,3.03 0.26,6.87 3.29,8.93 2.67,1.8 6.08,1.1 9.07,0.82 0.76,0.63 -2.46,2.26 -2.9,2.42 -4.19,1.54 -7.71,0.72 -11.96,0.3 -0.77,-0.08 -1.52,0.42 -2.2,-0.19 -0.71,-1.82 -0.76,-3.8 -1.46,-5.65 -3.99,-10.41 -17.25,-7.65 -24.97,-3.08 l -4.21,3.51 c 1.11,-6.6 -2.28,-15.21 -10.59,-14.07 -0.57,0.08 -1.33,0.27 -1.78,0.63 -0.69,0.54 -0.62,1.82 -1.38,1.7 -0.84,-0.12 -1.98,-1.73 -2.85,-2.3 -11.72,-7.73 -26.44,6.07 -23.59,18.06 0.08,0.34 0.47,1.09 -0.19,1.02 -3.39,-5.66 -5.69,-12.31 -4.56,-18.94 l 1.03,-0.22 c 0.89,-15.1 21.69,-18.33 28.59,-5.02 h 0.68 c 0.3,-1.09 2.13,-2.26 3.17,-2.82 9.68,-5.2 17.94,3.86 17.38,12.9 3.8,-3.59 8.18,-6.86 13.59,-7.73 l -0.33,-0.95 c 1.91,-0.52 0.96,-3.86 0.38,-5.32 -1.95,-4.87 -10.22,-12.45 -15.84,-8.11 l -2.32,2.3 c 0.29,-4.53 0.92,-9.47 -0.88,-13.76 -1.11,-2.64 -3.11,-4.49 -5.55,-5.65 -1.2,-0.59 -2.51,-0.98 -3.87,-1.22 1.47,-2.79 3.61,-5.16 6.16,-7.29 l 0.05,-25.26 c 4.33,-40.74 49.39,-59.94 76.65,-29.39 6.7,7.51 11.58,18.27 12.23,28.83 0.2,3.39 0.6,7.82 -2.85,9.44 -2.08,0.98 -9.44,0.71 -11.47,-0.49 -3.49,-2.05 -2.43,-4.93 -2.83,-8.37 -3.17,-26.96 -36.07,-35.3 -49.93,-12.41 -6.7,11.05 -4.24,23.42 -4.68,35.92 16.24,0.11 32.5,-0.14 48.74,-0.01 4.62,0.03 10.15,-0.29 14.59,0.01 8.36,0.56 15.23,6.29 16.76,15.36 v 0 z"
         id="path32"
         style="fill:#000000" />
    </g>
    <path
       class="st0"
       d="m 23.073551,210.31883 c 0.75,0.31 1.55,0.53 2.34,0.76 1.42,0.41 3.32,1.08 4.77,0.6 0.65,-0.22 0.51,-0.53 0.48,-1.13 -0.13,-2.77 -0.79,-5.62 -0.91,-8.41 -0.11,-2.65 -0.11,-3.79 2.26,-5.39 3.16,-2.14 6.94,-3.42 10.16,-5.35 0.31,-0.18 0.76,-0.46 1.02,-0.69 0.46,-0.43 0.64,-1.15 1.38,-1.27 0.74,-0.12 1.02,0.16 1.45,0.63 3.41,3.73 6.1,8.17 9.59,11.92 2.21,2.38 6.33,6.3 10.01,5.79 3.21,-0.45 7.01,-3.19 9.5,-5.06 1.73,-1.3 3.66,-2.74 5.2,-4.21 0.16,-0.15 0.48,-0.3 0.54,-0.53 0.03,-0.12 -0.11,-0.87 -0.15,-1.05 -0.38,-1.7 -2.12,-4.16 -3.95,-4.71 -0.44,-0.13 -0.89,0.15 -1.31,0.33 -2.23,0.95 -4.1,2.4 -6.14,3.64 -1.23,0.75 -3.04,1.98 -4.5,1.26 -1.85,-0.91 -4.65,-5.33 -5.82,-7.1 -2.46,-3.74 -4.75,-7.58 -7.32,-11.25 l -0.09,-0.02 c -0.09,0.06 -0.17,0.13 -0.28,0.17 -2.47,1.03 -4.95,2.06 -7.44,3.02 -2.27,0.88 -4.61,0.94 -6.97,1.45 -1.15,0.25 -3.02,1.56 -4.13,2.16 -4.13,2.24 -10.75,5.29 -11.83,10.07 -0.63,2.79 0.06,6.78 0.73,9.56 0.39,1.63 1.03,3.18 1.4,4.81 v 0 z"
       id="path10"
       style="fill:#000000" />
    <path
       class="st0"
       d="m 42.433551,161.32883 c -0.17,-0.1 -0.62,0.17 -0.82,0.22 -0.5,0.12 -1.7,0.2 -1.87,-0.41 -0.17,-0.61 0.12,-1.07 0.71,-1.35 0.53,-0.25 1.2,-0.42 1.76,-0.67 2.51,-1.09 5.53,-2.84 8.2,-3.47 0.89,-0.21 1.21,-0.2 2.06,0.1 2.55,0.89 4.96,2.78 7.58,3.57 0.48,0.14 0.98,0.35 1.4,-0.03 0.46,-0.42 1.12,-1.42 1.56,-1.95 0.21,-0.25 0.97,-0.92 0.9,-1.21 -0.13,-0.5 -2.21,-2.12 -2.73,-2.51 -2.55,-1.88 -5.97,-3.83 -9.16,-4.46 -5.52,-1.09 -11.98,1.34 -16.76,3.8 -3.61,1.86 -5.32,3.45 -9.64,4.2 -0.45,0.08 -1.07,0.09 -1.47,0.2 -0.07,0.02 -0.13,0 -0.16,0.1 -0.06,0.15 0.17,1.13 0.22,1.36 1.11,5.09 3.36,10.82 5.4,15.67 0.77,1.84 1.88,4.68 2.97,6.3 0.55,0.82 1.32,0.9 2.3,0.96 2.31,0.14 4.49,-0.46 6.68,-1.05 2.29,-0.98 4.82,-1.65 7.1,-2.61 0.58,-0.24 2.39,-1.14 2.55,-1.7 0.17,-0.6 -0.6,-2.27 -0.89,-2.89 -1.95,-4.1 -4.78,-7.95 -7.52,-11.6 -0.13,-0.18 -0.27,-0.35 -0.35,-0.56 h -0.02 z"
       id="path11"
       style="fill:#000000" />
    <path
       class="st0"
       d="m 79.403551,191.11883 c 0.11,0.12 0.41,0.31 0.57,0.47 0.99,1.04 1.91,2.23 2.48,3.53 0.26,0.58 0.36,1.21 0.67,1.75 1.4,0.4 2.76,0.74 4.02,1.47 2.23,1.29 4.56,4.26 7.45,3.48 0.77,-0.21 0.72,-0.51 0.66,-1.21 -0.21,-2.72 -4.11,-7.17 -6.11,-9.15 -1.2,-1.19 -2.82,-2.79 -4.28,-3.67 -0.77,-0.47 -1.07,-0.62 -1.95,-0.27 -0.94,0.37 -2.73,1.64 -3.22,2.47 -0.14,0.24 -0.49,0.9 -0.29,1.12 v 0 z"
       id="path12"
       style="fill:#000000" />
    <path
       class="st0"
       d="m 23.133551,212.90883 c -0.75,1.73 -3.46,1.68 -5.1,1.38 -1.04,-0.19 -2.68,-0.95 -3.5,0 -0.91,1.05 0.81,2.39 1.63,2.98 2.96,2.12 5.48,2.5 9.13,2.72 1.95,0.12 4.1,0.17 6.04,-0.07 0.32,-0.04 1.02,-0.13 1.21,-0.39 0.28,-0.37 -0.04,-1.7 -0.15,-2.18 -0.09,-0.4 -0.92,-3.34 -1.08,-3.44 -0.6,-0.13 -1.21,0.07 -1.79,0.09 -1.04,0.05 -1.84,-0.08 -2.84,-0.32 -0.58,-0.14 -3.18,-0.99 -3.55,-0.77 z"
       id="path13"
       style="fill:#000000" />
    <path
       class="st0"
       d="m 27.673551,175.58883 c 0.01,-0.2 -0.08,-0.38 -0.15,-0.56 -0.65,-1.76 -1.54,-3.51 -2.16,-5.29 -0.11,-0.11 -2.75,-0.59 -3.14,-0.65 -0.24,-0.04 -1.34,-0.24 -1.45,-0.17 -0.39,1.32 -1.09,2.55 -1.56,3.84 -0.06,0.17 -0.3,0.68 -0.2,0.8 0.13,0.16 1.16,0.53 1.42,0.62 1.5,0.55 3.21,0.95 4.81,1.16 0.81,0.11 1.62,0.13 2.43,0.25 z"
       id="path14"
       style="fill:#000000" />
    <path
       class="st0"
       d="m 66.643551,157.49883 c -0.34,-0.03 -0.67,-0.03 -1.01,0 -0.86,0.76 -1.65,1.81 -2.24,2.77 -0.16,0.26 -0.57,0.93 -0.53,1.2 0.03,0.24 0.52,0.81 0.71,0.98 1.96,1.76 6.07,1.4 7.17,-1.09 1.31,-2.95 -1.62,-3.67 -4.1,-3.86 z"
       id="path15"
       style="fill:#000000" />
    <path
       class="st1"
       d="m 56.763551,148.12883 c -0.01,0.33 -3.87,3.09 -4.52,3.8 -3.82,4.08 -3.63,8.87 -3.51,13.8 -5.53,-0.15 -9.87,4.19 -10.09,8.59 -0.09,1.55 0.28,3.65 0.71,5.11 -5.38,-1.73 -6.42,-5.77 -5.64,-10.09 0,0 0.01,-0.02 0.01,-0.04 1.66,-5.78 6.04,-7.43 11.61,-6.39 0.21,0.08 0.42,0.15 0.63,0.21 -0.42,-1.7 -2.52,-2.37 -2.78,-4.21 -1.06,-7.36 5.04,-11.8 13.59,-10.78 v 0 z"
       id="path25"
       style="fill:#000000" />
    <path
       class="st1"
       d="m 104.10355,201.55883 c -2.03,4.6 -8.699999,7.81 -13.989999,9.4 -0.09,0.02 -0.16,0.05 -0.25,0.07 -0.18,0.05 -0.35,0.08 -0.53,0.12 -0.43,0.07 -0.81,0.12 -1.1,0.19 -0.19,0.05 -0.2,0.05 -0.03,0 -4.97,0.78 -9.96,-0.09 -15.01,-2.43 -10.53,-5.64 -13.81,-17.76 -5.14,-26.28 0.84,-0.83 4.6,-3.72 5.58,-4.07 0.44,-0.17 0.65,0.08 0.52,0.42 -6.57,6.09 -8.34,13.37 -3.06,20.62 4.38,6.03 12.54,8.07 20.61,7.15 4.68,-0.53 9.089999,-2.41 12.389999,-5.2 h 0.01 z"
       id="path26"
       style="fill:#000000" />
    <path
       class="st1"
       d="m 93.243551,199.14883 c -0.49,-0.06 -5.34,-1.23 -4.44,-1.96 12.879999,2.49 19.599999,-11.15 14.619999,-19.64 1.65,-0.33 4.47,2.35 5.31,3.41 6.16,7.87 -4.86,19.46 -15.489999,18.19 z"
       id="path27"
       style="fill:#000000" />
  </g>
</svg>
